<?xml version='1.0' encoding='UTF-8' standalone='no'?>
<!DOCTYPE svg PUBLIC '-//W3C//DTD SVG 1.1//EN' 'http://www.w3.org/Graphics/SVG/1.1/DTD/svg11.dtd'>
<!-- Animated using aniGen version 0.8.1 Quality of Life - http://anigen.org -->
<svg xmlns="http://www.w3.org/2000/svg" xmlns:xlink="http://www.w3.org/1999/xlink" style="isolation:isolate" viewBox="0 0 400 400" width="400" height="400" id="svg190" preserveAspectRatio="xMidYMid" xmlns:svg="http://www.w3.org/2000/svg" xmlns:sodipodi="http://sodipodi.sourceforge.net/DTD/sodipodi-0.dtd" xmlns:inkscape="http://www.inkscape.org/namespaces/inkscape" xmlns:anigen="http://www.anigen.org/namespace" anigen:version="0.8.1"><sodipodi:namedview id="base" bordercolor="#666666" borderopacity="1" inkscape:cx="0" inkscape:cy="-90" inkscape:zoom="1"></sodipodi:namedview><defs id="defs3067"><clipPath id="_clipPath_9sxd0rarCsGeyy6jAnRhmmEjP8VMiJkK"><rect width="400" height="400" id="rect8776"></rect></clipPath></defs><g clip-path="url(#_clipPath_9sxd0rarCsGeyy6jAnRhmmEjP8VMiJkK)" id="g5071"><path d="M 199.999 358.273 C 194.966 358.273 190.191 356.003 186.986 352.084 L 32.846 163.715 C 28.121 157.942 27.683 149.734 31.768 143.481 L 86.779 59.263 C 89.899 54.483 95.198 51.607 100.87 51.607 L 299.134 51.607 C 304.805 51.607 310.1 54.483 313.226 59.263 L 368.231 143.481 C 372.316 149.733 371.881 157.941 367.156 163.715 L 213.011 352.084 C 209.805 356.002 205.032 358.273 199.999 358.273 Z" fill="rgb(255,98,152)" id="path2020"></path><path d=" M 241.139 154 L 370.975 154 C 371.213 150.371 370.317 146.669 368.23 143.481 L 313.216 59.263 C 311.587 56.764 309.36 54.806 306.796 53.489 L 241.139 154 Z " fill="rgb(255,170,200)" id="path9995"></path><path d="M 199.999 358.309 L 266.978 154 L 133.433 154 L 199.999 358.309 Z" fill="rgb(255,206,223)" id="path2959"></path><path d=" M 93.201 53.489 C 90.642 54.806 88.411 56.765 86.78 59.263 L 31.767 143.481 C 29.684 146.669 28.783 150.371 29.024 154 L 158.855 154 L 93.201 53.489 Z " fill="rgb(255,170,200)" id="path2202"></path><path d=" M 199.902 51.607 L 133.019 154 L 266.978 154 L 200.095 51.607 L 199.902 51.607 Z " fill="rgb(255,225,236)" id="path2655"></path><g opacity="0.1" id="g957"><path d="M 77.793 163.715 C 73.071 157.942 72.633 149.734 76.715 143.481 L 131.728 59.263 C 134.848 54.483 140.147 51.607 145.818 51.607 L 100.869 51.607 C 95.197 51.607 89.898 54.483 86.778 59.263 L 31.767 143.481 C 27.682 149.733 28.12 157.941 32.845 163.715 L 186.985 352.084 C 190.191 356.002 77.793 163.715 77.793 163.715 Z" fill="rgb(0,0,0)" id="path6997"></path></g><path d="M 44.376 346.705 L 20.237 371.204 C 17.177 374.308 17.215 379.307 20.32 382.367 C 21.858 383.882 23.859 384.637 25.86 384.637 C 27.9 384.637 29.938 383.851 31.483 382.285 L 55.622 357.785 C 58.682 354.681 58.644 349.682 55.539 346.622 C 52.434 343.562 47.437 343.599 44.376 346.705 Z" fill="rgb(255,199,83)" id="path7821" transform=""><animateTransform attributeName="transform" attributeType="auto" type="scale" values="1.5677720595753382 0.924248057259182;1.5677720595753382 0.924248057259182" calcMode="spline" keyTimes="0;1" keySplines="0 0 1 1" dur="10s" begin="0s" repeatCount="1" additive="sum" accumulate="none" fill="freeze" id="animateTransform5850"></animateTransform></path><path d=" M 355.62 346.705 C 352.559 343.597 347.564 343.561 344.458 346.622 C 341.354 349.682 341.318 354.679 344.378 357.783 L 368.519 382.281 C 370.064 383.849 372.101 384.633 374.141 384.633 C 376.141 384.633 378.143 383.878 379.681 382.362 C 382.786 379.302 382.822 374.305 379.762 371.201 L 355.62 346.705 Z " fill="rgb(255,199,83)" id="path2457"></path><path d=" M 349.998 55.65 C 352.038 55.65 354.076 54.863 355.62 53.297 L 379.761 28.8 C 382.821 25.695 382.785 20.698 379.68 17.639 C 376.576 14.579 371.577 14.616 368.518 17.721 L 344.377 42.219 C 341.317 45.323 341.353 50.321 344.457 53.38 C 345.996 54.894 347.998 55.65 349.998 55.65 Z " fill="rgb(255,199,83)" id="path5475"></path><path d="M 31.483 17.717 C 28.421 14.609 23.425 14.575 20.321 17.634 C 17.216 20.694 17.179 25.691 20.238 28.796 L 44.377 53.294 C 45.922 54.862 47.96 55.647 50 55.647 C 52 55.647 54.003 54.891 55.54 53.377 C 58.645 50.317 58.682 45.319 55.623 42.215 L 31.483 17.717 Z" fill="rgb(255,199,83)" id="path8418" transform=""><animateTransform attributeName="transform" attributeType="auto" type="rotate" values="0 68 21;0 68 21" calcMode="spline" keyTimes="0;1" keySplines="0 0 1 1" dur="10s" begin="0s" repeatCount="1" additive="sum" accumulate="none" fill="freeze" id="animateTransform6787"></animateTransform></path></g></svg>