<?xml version="1.0" standalone="no"?><!-- Generator: Gravit.io --><svg xmlns="http://www.w3.org/2000/svg" xmlns:xlink="http://www.w3.org/1999/xlink" style="isolation:isolate" viewBox="0 0 512 512" width="512" height="512"><defs><clipPath id="_clipPath_kvuBf6uiGOBGjqNIBD6lBVknnO2O958f"><rect width="512" height="512"/></clipPath></defs><g clip-path="url(#_clipPath_kvuBf6uiGOBGjqNIBD6lBVknnO2O958f)"><path d="M 44.74 4.5 L 467.26 4.5 C 489.469 4.5 507.5 22.531 507.5 44.74 L 507.5 467.26 C 507.5 489.469 489.469 507.5 467.26 507.5 L 44.74 507.5 C 22.531 507.5 4.5 489.469 4.5 467.26 L 4.5 44.74 C 4.5 22.531 22.531 4.5 44.74 4.5 Z" style="stroke:none;fill:#6678FF;stroke-miterlimit:10;"/><g id="rocket"><g id="Group"><g opacity="0.7"><path d=" M 238.506 384.032 C 238.506 379.429 234.823 375.746 230.22 375.746 C 225.616 375.746 221.933 379.429 221.933 384.032 C 221.933 388.636 230.22 439.89 230.22 439.89 C 230.22 439.89 238.506 388.636 238.506 384.032 Z " fill="rgb(255,255,255)"/></g><g opacity="0.7"><path d=" M 264.082 434.672 C 264.082 430.069 260.399 426.386 255.795 426.386 C 251.192 426.386 247.509 430.069 247.509 434.672 C 247.509 439.276 255.795 490.53 255.795 490.53 C 255.795 490.53 264.082 439.276 264.082 434.672 Z " fill="rgb(255,255,255)"/></g><g opacity="0.7"><path d=" M 290.681 392.217 C 290.681 387.613 286.998 383.93 282.394 383.93 C 277.791 383.93 274.108 387.613 274.108 392.217 C 274.108 396.82 282.394 448.074 282.394 448.074 C 282.394 448.074 290.681 396.82 290.681 392.217 Z " fill="rgb(255,255,255)"/></g></g><rect x="222.956" y="349.045" width="66.19" height="21.791" transform="matrix(1,0,0,1,0,0)" fill="rgb(237,237,239)"/><rect x="222.956" y="349.045" width="33.044" height="21.791" transform="matrix(1,0,0,1,0,0)" fill="rgb(255,255,255)"/><g id="Group"><path d=" M 256 341.27 C 305.003 341.27 346.845 371.756 363.623 414.826 C 368.738 401.833 371.5 387.613 371.5 372.779 C 371.5 308.942 319.735 257.176 256 257.176 C 192.163 257.176 140.5 308.942 140.5 372.677 C 140.5 387.511 143.364 401.629 148.377 414.723 C 165.155 371.756 206.997 341.27 256 341.27 Z " fill="rgb(237,58,90)"/><path d=" M 285.463 261.064 L 285.463 345.157 C 321.269 354.569 350.323 380.759 363.623 414.826 C 368.738 401.833 371.5 387.613 371.5 372.779 C 371.5 319.172 334.978 274.159 285.463 261.064 Z " fill="rgb(188,51,71)"/><path d=" M 256 356.308 C 270.22 356.308 283.929 358.559 296.819 362.651 C 315.95 323.98 327.408 274.159 327.408 219.734 C 327.408 133.185 298.353 58.299 256 21.572 C 213.646 58.299 184.592 133.185 184.592 219.734 C 184.592 274.159 196.153 324.083 215.181 362.651 C 228.071 358.559 241.78 356.308 256 356.308 Z " fill="rgb(254,172,28)"/><path d=" M 256 21.47 C 255.898 21.572 255.693 21.777 255.591 21.879 L 255.591 356.308 C 255.693 356.308 255.898 356.308 256 356.308 C 270.22 356.308 283.929 358.559 296.819 362.651 C 315.95 323.98 327.408 274.159 327.408 219.734 C 327.408 133.185 298.353 58.299 256 21.47 Z " fill="rgb(254,130,34)"/><path d=" M 256 103.415 C 273.903 103.415 291.499 104.029 308.686 105.154 C 296.103 69.553 277.791 40.396 256 21.47 C 234.209 40.396 215.897 69.553 203.314 105.154 C 220.501 104.029 238.097 103.415 256 103.415 Z " fill="rgb(222,68,94)"/><path d=" M 255.591 21.879 L 255.591 103.415 C 255.693 103.415 255.898 103.415 256 103.415 C 273.903 103.415 291.499 104.029 308.686 105.154 C 296.103 69.553 277.791 40.396 256 21.47 C 255.898 21.675 255.693 21.777 255.591 21.879 Z " fill="rgb(188,51,71)"/><path d=" M 256 250.22 C 246.895 265.565 240.655 296.666 240.655 332.676 C 240.655 368.687 246.895 399.787 256 415.133 C 265.105 399.787 271.345 368.687 271.345 332.676 C 271.345 296.666 265.105 265.565 256 250.22 Z " fill="rgb(222,68,94)"/><path d=" M 255.591 251.038 L 255.591 414.416 C 255.693 414.621 255.898 414.928 256 415.133 C 265.105 399.787 271.345 368.687 271.345 332.676 C 271.345 296.666 265.105 265.565 256 250.22 C 255.898 250.527 255.693 250.834 255.591 251.038 Z " fill="rgb(188,51,71)"/><path d=" M 256 219.734 C 233.902 219.734 215.897 201.728 215.897 179.631 C 215.897 157.533 233.902 139.528 256 139.528 C 278.097 139.528 296.103 157.533 296.103 179.631 C 296.103 201.728 278.097 219.734 256 219.734 L 256 219.734 Z " fill="rgb(21,176,191)"/><path d=" M 256 151.702 C 240.655 151.702 228.174 164.183 228.071 179.528 C 228.071 194.874 240.552 207.355 256 207.355 C 271.345 207.355 283.826 194.874 283.826 179.528 C 283.826 164.183 271.345 151.702 256 151.702 L 256 151.702 Z " fill="rgb(255,255,255)"/><g id="Group"><path d=" M 256 139.426 C 255.898 139.426 255.693 139.426 255.591 139.426 L 255.591 151.702 C 255.693 151.702 255.898 151.702 256 151.702 C 271.345 151.702 283.826 164.183 283.826 179.528 C 283.826 194.874 271.345 207.355 256 207.355 C 255.898 207.355 255.693 207.355 255.591 207.355 L 255.591 219.631 C 255.693 219.631 255.898 219.631 256 219.631 C 278.097 219.631 296.103 201.626 296.103 179.528 C 296.103 157.431 278.097 139.426 256 139.426 Z " fill="rgb(22,149,164)"/><path d=" M 283.826 179.528 C 283.826 164.183 271.345 151.702 256 151.702 C 255.898 151.702 255.693 151.702 255.591 151.702 L 255.591 207.355 C 255.693 207.355 255.898 207.355 256 207.355 C 271.345 207.457 283.826 194.976 283.826 179.528 Z " fill="rgb(209,236,251)"/></g></g></g></g></svg>