<svg xmlns="http://www.w3.org/2000/svg" style="isolation:isolate" width="400" height="400" id="SJXl_32wgGz">
    <style>
        #B1SlOnnDgfz{fill: #14b0bf;}#SkLgunnDlMM{fill: #E35184;}#SywgOn2wxzz{fill: #324A5E;}#By_e_nnwxMM{fill: #2B3B4E;}#HJYlu3hPgMG{fill: #324A5E;}#B1cldh3vlGG{fill: #E6E9EE;}#SkjlO2hvlMz{fill: #2B3B4E;}#SJnlun2vxfG{fill: #324A5E;}#BkplunnPxMG{fill: #E6E9EE;}#BJJ-dhnDxMz{fill: #FFF;}#H1gWO3nvlGz{fill: #84DBFF;}#SyW-O22PeGz{fill: #FFF;}#BkzZu23Pgzz{fill: #CED5E0;}#BJVbu3nDeGz{fill: #324A5E;}#ryHbd3hDgfG{fill: #FFF;}#HJPWO2hvxGG{fill: #324A5E;}#B1OZ_nnDxfG{fill: #FFF;}#HJqbdh2wezf{fill: #84DBFF;}#ByjbOh2wxfz{fill: #324A5E;}#B1A-u3nwgMf{fill: #FFF;}#rJefu22PlMf{fill: #E6E9EE;}#HJZfd3hweGf{fill: #324A5E;}#ByMzdnnweff{fill: #FFF;}#B1EfdnhvgzG{fill: #E6E9EE;}

	@keyframes ByMzdnnweffAnimation {
		0% {
			transform: translate(3px, 0px);
		}
		11.67% {
			transform: translate(0px, 0px);
		}
	}

	#ByMzdnnweff {
		transform-origin: 50% 50% !important;
		animation: ByMzdnnweffAnimation 10s linear;
	}



	@keyframes HJqbdh2wezfAnimation {
		0% {
			transform: scale(0.8, 1);
		}
		10% {
			transform: scale(1, 1);
		}
		30% {
			transform: scale(1, 0.2);
		}
		39.67% {
			transform: scale(1, 1);
		}
	}

	#HJqbdh2wezf {
		transform-origin: 50% 50% !important;
		animation: HJqbdh2wezfAnimation 10s linear;
	}



	@keyframes H1gWO3nvlGzAnimation {
		19% {
			transform: scale(0.8, 1);
		}
		24.33% {
			transform: scale(1, 1);
		}
		59% {
			transform: scale(1, 0.2);
		}
		67.33% {
			transform: scale(1, 1);
		}
		0% {
			transform: translate(0px, 0px);
		}
		77.33% {
			transform: translate(0px, 10px);
		}
		87% {
			transform: translate(0px, 0px);
		}
	}

	#H1gWO3nvlGz {
		transform-origin: 50% 50% !important;
		animation: H1gWO3nvlGzAnimation 10s linear;
	}
    </style>
    <svg xmlns="http://www.w3.org/2000/svg" style="isolation:isolate" width="400" height="400" id="SJXl_32wgGz">
        <defs>
            <clipPath id="a">
                <path d="M0 0h400v400H0z"/>
            </clipPath>
        </defs>
        <g clip-path="url(#a)" id="SJEe_3nvlMf">
            <path d="M0 200C0 89.617 89.617 0 200 0s200 89.617 200 200-89.617 200-200 200S0 310.383 0 200z" id="B1SlOnnDgfz"/>
            <path d="M61.732 344.567C97.638 378.898 146.457 400 200 400c53.543 0 102.362-21.102 138.268-55.433H61.732z" id="SkLgunnDlMM"/>
            <path d="M191.811 137.008h16.063v31.496h-16.063z" id="SywgOn2wxzz"/>
            <path d="M275.906 85.984h14.488v9.449h-14.488z" id="By_e_nnwxMM"/>
            <path d="M275.906 78.74v23.937c0 3.15-2.205 5.984-5.355 6.614l-5.984 1.26c.945-6.299 1.575-12.913 1.575-19.527 0-6.615-.63-13.229-1.575-19.528l5.984 1.26c3.15 0 5.355 2.835 5.355 5.984z" id="HJYlu3hPgMG"/>
            <path d="M289.134 90.709c0-5.215 4.234-9.449 9.449-9.449s9.448 4.234 9.448 9.449-4.233 9.448-9.448 9.448c-5.215 0-9.449-4.233-9.449-9.448z" id="B1cldh3vlGG"/>
            <path d="M108.346 85.984h15.748v9.449h-15.748z" id="SkjlO2hvlMz"/>
            <path d="M129.449 72.126l11.023-2.205v41.26l-11.023-2.205c-3.15-.63-5.355-3.149-5.355-6.614V78.425c0-2.834 2.205-5.669 5.355-6.299z" id="SJnlun2vxfG"/>
            <g id="BkplunnPxMG">
                <path d="M91.969 90.709c0-5.215 4.233-9.449 9.448-9.449 5.215 0 9.449 4.234 9.449 9.449s-4.234 9.448-9.449 9.448-9.448-4.233-9.448-9.448zM266.457 90.709c0 12.598-1.89 24.567-5.355 35.275-16.063 8.819-37.48 14.173-61.102 14.173s-45.039-5.354-60.787-13.858c-3.465-10.708-5.355-22.677-5.355-35.275 0-12.599 1.89-24.567 5.355-35.276C154.961 46.929 176.378 41.89 200 41.89s45.039 5.354 60.787 13.858a111.394 111.394 0 0 1 5.67 34.961z" id="HJAlO22Dlff"/>
            </g>
            <path d="M208.819 79.37c0-11.473 9.314-20.787 20.787-20.787 11.473 0 20.788 9.314 20.788 20.787 0 11.473-9.315 20.787-20.788 20.787s-20.787-9.314-20.787-20.787z" id="BJJ-dhnDxMz"/>
            <path d="M220.157 79.37c0-5.215 4.234-9.449 9.449-9.449s9.449 4.234 9.449 9.449-4.234 9.449-9.449 9.449-9.449-4.234-9.449-9.449z" id="H1gWO3nvlGz"/>
            <path d="M149.606 79.37c0-11.473 9.315-20.787 20.788-20.787s20.787 9.314 20.787 20.787c0 11.473-9.314 20.787-20.787 20.787-11.473 0-20.788-9.314-20.788-20.787z" id="SyW-O22PeGz"/>
            <g id="BkzZu23Pgzz">
                <path d="M172.913 126.299c-2.204-.63-4.409-1.26-6.299-1.89 1.575-4.409 2.835-8.503 4.41-12.913 1.889.63 3.779 1.26 5.669 1.575l-3.78 13.228zM188.031 129.134l-6.614-.945c.945-4.409 1.575-8.819 2.52-13.543l5.669.945c-.315 4.409-.945 9.133-1.575 13.543zM203.465 129.764h-6.615c0-4.41.315-9.134.315-13.544h5.67c.315 4.41.315 9.134.63 13.544zM218.583 128.189l-6.614.945c-.63-4.41-.945-9.134-1.575-13.543l5.669-.945c.945 4.409 1.575 9.134 2.52 13.543zM233.386 124.409c-2.205.63-4.41 1.26-6.299 1.89-1.26-4.409-2.52-8.819-3.465-13.228 1.89-.63 3.78-.945 5.669-1.575 1.26 4.095 2.52 8.504 4.095 12.913z" id="BkXZu22DeGz"/>
            </g>
            <path d="M208.819 339.843l30.551-16.693-.945-51.339-6.614-45.984h-27.087l16.378 51.338-12.283 62.678z" id="BJVbu3nDeGz"/>
            <g id="ryHbd3hDgfG">
                <path d="M281.89 345.512c-.945-19.528-17.008-35.276-36.851-35.276-19.842 0-35.905 15.748-36.85 35.276h73.701zM217.953 277.165c0-6.779 5.504-12.283 12.283-12.283 6.78 0 12.284 5.504 12.284 12.283 0 6.78-5.504 12.284-12.284 12.284-6.779 0-12.283-5.504-12.283-12.284z" id="HJUWuh2DgfM"/>
            </g>
            <path d="M195.276 225.827h-27.087l-6.614 45.984-.945 51.339 30.551 16.693-12.283-62.678 16.378-51.338z" id="HJPWO2hvxGG"/>
            <g id="B1OZ_nnDxfG">
                <path d="M118.11 345.512c.945-19.528 17.008-35.276 36.851-35.276 19.842 0 35.905 15.748 36.85 35.276H118.11zM157.48 277.165c0-6.779 5.504-12.283 12.284-12.283 6.779 0 12.283 5.504 12.283 12.283 0 6.78-5.504 12.284-12.283 12.284-6.78 0-12.284-5.504-12.284-12.284zM240.63 193.071c5.039 14.173 7.874 30.866 8.189 48.504-14.173 4.724-30.551 7.559-48.819 7.559-18.268 0-34.646-2.835-48.819-7.559 0-17.638 3.15-34.331 8.189-48.504 4.724-13.858 11.339-23.937 17.953-30.236 7.244-1.26 14.803-1.89 22.677-1.89 7.874 0 15.433.63 22.677 1.89 6.614 6.299 13.229 16.378 17.953 30.236z" id="rkYW_3hwezM"/>
            </g>
            <path d="M160.945 79.37c0-5.215 4.234-9.449 9.449-9.449s9.449 4.234 9.449 9.449-4.234 9.449-9.449 9.449-9.449-4.234-9.449-9.449z" id="HJqbdh2wezf"/>
            <g id="ByjbOh2wxfz">
                <path d="M245.669 165.354l-12.283 19.213 40.945 22.362 25.197 49.449 11.338-5.039-19.527-51.969-45.67-34.016z" id="BynWu32DlGG"/>
                <path d="M245.669 165.354l-12.283 19.213 40.945 22.362 25.197 49.449 11.338-5.039-19.527-51.969-45.67-34.016z" id="H1Tbd3hDgMG"/>
            </g>
            <g id="B1A-u3nwgMf">
                <path d="M329.134 268.031c-3.78 1.575-7.874 0-9.764-3.779-1.89-4.409-7.244-6.614-11.653-4.409-4.41 1.889-6.615 7.244-4.41 11.653 1.575 3.78 0 7.874-3.779 9.764-3.78 1.575-7.874 0-9.764-3.78-5.355-11.968 0-25.826 11.968-30.866 11.969-5.354 25.827 0 30.866 11.969 1.89 3.464.315 7.874-3.464 9.448zM267.087 203.78c0-8.866 7.197-16.063 16.063-16.063 8.865 0 16.063 7.197 16.063 16.063 0 8.865-7.198 16.063-16.063 16.063-8.866 0-16.063-7.198-16.063-16.063z" id="By1fdh2wgGz"/>
            </g>
            <path d="M218.583 176.693c0-11.647 9.455-21.102 21.102-21.102s21.102 9.455 21.102 21.102-9.455 21.102-21.102 21.102-21.102-9.455-21.102-21.102z" id="rJefu22PlMf"/>
            <path d="M154.331 165.354l12.283 19.213-40.945 22.362h.315l-25.512 49.449-11.338-5.039 19.527-51.969 45.67-34.016z" id="HJZfd3hweGf"/>
            <g id="ByMzdnnweff">
                <path d="M70.866 268.031c3.78 1.575 7.874 0 9.764-3.779 1.89-4.409 7.244-6.614 11.653-4.409 4.41 1.889 6.615 7.244 4.41 11.653-1.575 3.78 0 7.874 3.779 9.764 3.78 1.575 7.874 0 9.764-3.78 5.355-11.968 0-25.826-11.968-30.866-11.969-5.354-25.827 0-30.866 11.969-1.89 3.464-.315 7.874 3.464 9.448zM100.787 203.78c0-8.866 7.198-16.063 16.063-16.063 8.866 0 16.063 7.197 16.063 16.063 0 8.865-7.197 16.063-16.063 16.063-8.865 0-16.063-7.198-16.063-16.063z" id="SyXfOhhvgMf"/>
            </g>
            <path d="M139.213 176.693c0-11.647 9.455-21.102 21.102-21.102s21.102 9.455 21.102 21.102-9.455 21.102-21.102 21.102-21.102-9.455-21.102-21.102z" id="B1EfdnhvgzG"/>
        </g>
    </svg>
</svg>